<?xml version="1.0" standalone="no"?>
<!DOCTYPE svg PUBLIC "-//W3C//DTD SVG 20010904//EN"
 "http://www.w3.org/TR/2001/REC-SVG-20010904/DTD/svg10.dtd">
<svg version="1.0" xmlns="http://www.w3.org/2000/svg"
 width="300.000000pt" height="300.000000pt" viewBox="0 0 300.000000 300.000000"
 preserveAspectRatio="xMidYMid meet">
<metadata>
Created by potrace 1.10, written by Peter Selinger 2001-2011
</metadata>
<g transform="translate(0.000000,300.000000) scale(0.100000,-0.100000)"
fill="#000000" stroke="none">
<path d="M0 1500 l0 -1500 1500 0 1500 0 0 1500 0 1500 -1500 0 -1500 0 0
-1500z m1606 591 c27 -12 64 -36 81 -53 30 -29 37 -31 93 -29 230 9 313 -305
108 -410 -54 -28 -108 -24 -180 12 -46 23 -71 30 -104 27 -57 -4 -39 13 20 19
63 8 58 23 -8 23 l-54 0 -4 40 c-2 28 0 40 9 40 7 0 13 -11 13 -25 0 -24 3
-25 60 -25 l60 0 0 -30 c0 -24 6 -33 26 -40 110 -42 237 58 220 175 -18 120
-151 174 -259 105 -39 -25 -46 -26 -37 -10 6 10 17 23 26 28 14 8 12 14 -15
44 -45 52 -121 82 -192 75 -69 -6 -106 -25 -160 -80 -43 -43 -89 -127 -89
-161 0 -13 -3 -17 -10 -10 -6 6 -6 30 0 69 5 32 8 61 5 63 -2 2 -23 1 -47 -3
-62 -11 -124 -74 -133 -137 -15 -97 51 -178 152 -186 l53 -4 0 -109 c0 -60 1
-109 3 -109 1 0 24 7 51 15 55 17 221 20 231 5 4 -6 -17 -10 -57 -10 -65 0
-111 -9 -185 -36 -37 -14 -43 -20 -43 -45 0 -33 1 -33 50 -19 86 25 223 32
368 19 l142 -13 0 -36 0 -37 -52 14 c-138 36 -387 24 -518 -26 l-50 -19 0 173
0 173 -42 10 c-93 24 -161 114 -161 212 0 69 20 116 68 163 42 41 90 60 155
61 36 1 50 6 68 28 77 90 222 120 338 69z m202 -183 c30 -30 -11 -88 -48 -68
-13 7 -22 4 -35 -10 -18 -20 -17 -20 26 -20 25 0 51 -6 58 -12 6 -7 29 -13 49
-13 36 0 37 -1 37 -35 0 -32 -3 -35 -32 -38 -18 -2 -33 1 -33 7 0 5 -12 23
-26 40 -23 28 -31 31 -85 31 -32 0 -59 4 -59 8 0 5 14 21 31 38 17 16 37 41
45 57 16 29 51 36 72 15z m-692 -195 c11 -16 40 -38 65 -51 l44 -23 -38 5
c-79 10 -127 77 -111 154 l8 37 6 -47 c3 -26 15 -60 26 -75z m516 63 c-2 -13
6 -16 44 -16 30 0 54 -6 66 -17 10 -9 28 -21 41 -27 48 -24 18 -87 -33 -71
-20 6 -22 10 -24 55 -1 23 -5 25 -58 28 l-58 3 0 35 c0 24 4 34 13 31 6 -2 11
-11 9 -21z m1 -196 c-5 -19 0 -20 84 -20 86 0 90 -1 118 -30 32 -33 56 -38 75
-15 18 22 46 18 64 -7 13 -19 14 -25 2 -43 -17 -25 -49 -31 -66 -10 -7 8 -23
15 -35 15 -13 0 -34 13 -48 30 -25 29 -27 30 -121 30 l-96 0 0 35 c0 23 5 35
14 35 9 0 12 -7 9 -20z m-338 -60 l6 -55 47 3 c65 5 43 -14 -27 -22 l-54 -7 7
47 c3 26 6 61 7 78 1 41 6 24 14 -44z m434 -34 c10 -9 24 -16 32 -16 39 0 54
-61 19 -80 -30 -16 -62 4 -59 38 5 42 -7 52 -62 52 -36 0 -49 4 -49 14 0 20
95 14 119 -8z m-39 -82 l0 -45 59 2 c56 2 60 1 90 -34 24 -27 41 -37 69 -39
33 -3 37 -6 37 -32 0 -53 -64 -62 -73 -10 -2 10 -20 36 -40 57 -35 36 -38 37
-105 37 l-69 0 3 43 c3 40 2 42 -24 42 -16 -1 -27 5 -27 12 0 8 14 13 40 13
l40 0 0 -46z m-649 -454 c21 -47 38 -88 38 -92 2 -18 -38 -6 -44 12 -5 16 -15
20 -50 20 -35 0 -45 -4 -50 -20 -5 -16 -45 -30 -45 -16 0 6 68 165 76 178 15
24 40 -4 75 -82z m129 -5 c0 -88 -1 -95 -20 -95 -19 0 -20 7 -20 95 0 88 1 95
20 95 19 0 20 -7 20 -95z m295 83 c29 -13 31 -21 11 -37 -10 -8 -16 -9 -21 -1
-10 15 -62 12 -79 -6 -40 -39 -3 -113 51 -100 50 12 58 11 58 -4 0 -8 -16 -20
-36 -28 -97 -37 -173 85 -100 159 32 32 71 38 116 17z m115 -28 c0 -40 0 -40
40 -40 40 0 40 0 40 40 0 33 3 40 20 40 19 0 20 -7 20 -95 0 -88 -1 -95 -20
-95 -17 0 -20 7 -20 39 0 38 0 38 -40 38 -40 0 -40 0 -40 -38 0 -32 -3 -39
-20 -39 -19 0 -20 7 -20 95 0 88 1 95 20 95 17 0 20 -7 20 -40z m330 20 c0
-18 -7 -20 -55 -20 -48 0 -55 -2 -55 -20 0 -17 7 -20 51 -20 43 0 50 -3 47
-17 -3 -15 -12 -17 -51 -15 -45 4 -47 3 -47 -23 0 -26 1 -27 55 -23 47 3 55 0
55 -14 0 -16 -10 -18 -75 -18 l-75 0 0 95 0 95 75 0 c68 0 75 -2 75 -20z m200
0 c0 -18 -7 -20 -55 -20 -50 0 -55 -2 -55 -22 0 -21 4 -23 50 -20 45 4 50 2
50 -17 0 -19 -6 -21 -50 -21 l-50 0 0 -35 c0 -28 -4 -35 -20 -35 -19 0 -20 7
-20 95 l0 95 75 0 c68 0 75 -2 75 -20z"/>
<path d="M1766 1893 c-12 -12 -6 -33 9 -33 8 0 15 6 15 14 0 17 -14 28 -24 19z"/>
<path d="M1844 1759 c-10 -17 13 -36 27 -22 12 12 4 33 -11 33 -5 0 -12 -5
-16 -11z"/>
<path d="M1750 1686 c0 -21 21 -31 30 -15 5 7 6 17 4 21 -9 14 -34 9 -34 -6z"/>
<path d="M1922 1488 c7 -19 38 -22 38 -4 0 10 -9 16 -21 16 -12 0 -19 -5 -17
-12z"/>
<path d="M1743 1434 c-7 -19 2 -28 22 -21 19 8 19 23 0 31 -9 3 -18 -1 -22
-10z"/>
<path d="M1894 1259 c-10 -17 13 -36 27 -22 12 12 4 33 -11 33 -5 0 -12 -5
-16 -11z"/>
<path d="M972 965 c-17 -37 -15 -45 13 -45 28 0 31 13 12 48 l-13 23 -12 -26z"/>
</g>
</svg>
