<?xml version="1.0" standalone="no"?>
<!DOCTYPE svg PUBLIC "-//W3C//DTD SVG 20010904//EN"
 "http://www.w3.org/TR/2001/REC-SVG-20010904/DTD/svg10.dtd">
<svg version="1.0" xmlns="http://www.w3.org/2000/svg"
 width="300.000000pt" height="300.000000pt" viewBox="0 0 300.000000 300.000000"
 preserveAspectRatio="xMidYMid meet">
<metadata>
Created by potrace 1.10, written by Peter Selinger 2001-2011
</metadata>
<g transform="translate(0.000000,300.000000) scale(0.100000,-0.100000)"
fill="#000000" stroke="none">
<path d="M1403 2106 c-54 -17 -106 -50 -135 -84 -18 -22 -32 -27 -68 -28 -65
-1 -113 -20 -155 -61 -48 -47 -68 -94 -68 -163 0 -98 68 -188 161 -212 l42
-10 0 -173 0 -173 50 19 c131 50 380 62 518 26 l52 -14 0 37 0 36 -142 13
c-145 13 -282 6 -368 -19 -49 -14 -50 -14 -50 19 0 25 6 31 43 45 74 27 120
36 185 36 40 0 61 4 57 10 -10 15 -176 12 -231 -5 -27 -8 -50 -15 -51 -15 -2
0 -3 49 -3 109 l0 109 -53 4 c-101 8 -167 89 -152 186 9 63 71 126 133 137 24
4 45 5 47 3 3 -2 0 -31 -5 -63 -6 -39 -6 -63 0 -69 7 -7 10 -3 10 10 0 34 46
118 89 161 54 55 91 74 160 80 71 7 147 -23 192 -75 27 -30 29 -36 15 -44 -9
-5 -20 -18 -26 -28 -9 -16 -2 -15 37 10 108 69 241 15 259 -105 17 -117 -110
-217 -220 -175 -20 7 -26 16 -26 40 l0 30 -60 0 c-57 0 -60 1 -60 25 0 14 -6
25 -13 25 -9 0 -11 -12 -9 -40 l4 -40 54 0 c66 0 71 -15 8 -23 -59 -6 -77 -23
-20 -19 33 3 58 -4 104 -27 72 -36 126 -40 180 -12 88 45 133 142 111 239 -14
65 -51 115 -110 146 -40 23 -60 27 -109 25 -56 -2 -63 0 -93 29 -68 66 -197
97 -284 68z"/>
<path d="M1736 1893 c-8 -16 -28 -41 -45 -57 -17 -17 -31 -33 -31 -38 0 -4 27
-8 59 -8 54 0 62 -3 85 -31 14 -17 26 -35 26 -40 0 -6 15 -9 33 -7 29 3 32 6
32 38 0 34 -1 35 -37 35 -20 0 -43 6 -49 13 -7 6 -33 12 -58 12 -43 0 -44 0
-26 20 13 14 22 17 35 10 21 -11 60 13 60 39 0 46 -61 56 -84 14z m140 -134
c10 -17 -13 -36 -27 -22 -12 12 -4 33 11 33 5 0 12 -5 16 -11z"/>
<path d="M1076 1798 c-16 -77 32 -144 111 -154 l38 -5 -44 23 c-57 29 -84 66
-91 126 l-6 47 -8 -37z"/>
<path d="M1610 1766 l0 -35 58 -3 c53 -3 57 -5 58 -28 2 -45 4 -49 24 -55 51
-16 81 47 33 71 -13 6 -31 18 -41 27 -12 11 -36 17 -66 17 -38 0 -46 3 -44 16
2 10 -3 19 -9 21 -9 3 -13 -7 -13 -31z m174 -74 c8 -13 -11 -35 -23 -28 -16
10 -14 36 3 36 8 0 17 -4 20 -8z"/>
<path d="M1610 1565 l0 -35 96 0 c94 0 96 -1 121 -30 14 -17 35 -30 48 -30 12
0 28 -7 35 -15 17 -21 49 -15 66 10 27 41 -35 88 -66 50 -19 -23 -43 -18 -75
15 -28 29 -32 30 -118 30 -84 0 -89 1 -84 20 3 13 0 20 -9 20 -9 0 -14 -12
-14 -35z m350 -81 c0 -9 -7 -14 -17 -12 -25 5 -28 28 -4 28 12 0 21 -6 21 -16z"/>
<path d="M1281 1564 c-1 -17 -4 -52 -7 -78 l-7 -47 54 7 c70 8 92 27 27 22
l-47 -3 -6 55 c-8 68 -13 85 -14 44z"/>
<path d="M1610 1494 c0 -10 13 -14 49 -14 55 0 67 -10 62 -52 -3 -34 29 -54
59 -38 35 19 20 80 -19 80 -8 0 -22 7 -32 16 -24 22 -119 28 -119 8z m170 -65
c0 -12 -29 -24 -37 -16 -3 4 -3 13 0 21 6 16 37 11 37 -5z"/>
<path d="M1610 1437 c0 -7 11 -13 27 -12 26 0 27 -2 24 -42 l-3 -43 69 0 c67
0 70 -1 105 -37 20 -21 38 -47 40 -57 9 -52 73 -43 73 10 0 26 -4 29 -37 32
-28 2 -45 12 -69 39 -30 35 -34 36 -90 34 l-59 -2 0 45 0 46 -40 0 c-26 0 -40
-5 -40 -13z m316 -178 c10 -17 -13 -36 -27 -22 -12 12 -4 33 11 33 5 0 12 -5
16 -11z"/>
<path d="M966 1032 c-8 -13 -76 -172 -76 -178 0 -14 40 0 45 16 5 16 15 20 50
20 35 0 45 -4 50 -20 6 -18 46 -30 44 -12 0 4 -17 45 -38 92 -35 78 -60 106
-75 82z m44 -99 c0 -7 -11 -13 -25 -13 -28 0 -30 8 -13 45 l12 26 13 -23 c7
-13 12 -29 13 -35z"/>
<path d="M1130 945 c0 -88 1 -95 20 -95 19 0 20 7 20 95 0 88 -1 95 -20 95
-19 0 -20 -7 -20 -95z"/>
<path d="M1349 1011 c-49 -49 -35 -126 28 -156 31 -15 39 -15 72 -3 20 8 36
20 36 28 0 15 -8 16 -58 4 -54 -13 -91 61 -51 100 17 18 69 21 79 6 5 -8 11
-7 21 1 20 16 18 24 -11 37 -45 21 -84 15 -116 -17z"/>
<path d="M1540 945 c0 -88 1 -95 20 -95 17 0 20 7 20 39 0 38 0 38 40 38 40 0
40 0 40 -38 0 -32 3 -39 20 -39 19 0 20 7 20 95 0 88 -1 95 -20 95 -17 0 -20
-7 -20 -40 0 -40 0 -40 -40 -40 -40 0 -40 0 -40 40 0 33 -3 40 -20 40 -19 0
-20 -7 -20 -95z"/>
<path d="M1760 945 l0 -95 75 0 c65 0 75 2 75 18 0 14 -8 17 -55 14 -54 -4
-55 -3 -55 23 0 26 2 27 47 23 39 -2 48 0 51 15 3 14 -4 17 -47 17 -44 0 -51
3 -51 20 0 18 7 20 55 20 48 0 55 2 55 20 0 18 -7 20 -75 20 l-75 0 0 -95z"/>
<path d="M1960 945 c0 -88 1 -95 20 -95 16 0 20 7 20 35 l0 35 50 0 c44 0 50
2 50 21 0 19 -5 21 -50 17 -46 -3 -50 -1 -50 20 0 20 5 22 55 22 48 0 55 2 55
20 0 18 -7 20 -75 20 l-75 0 0 -95z"/>
</g>
</svg>
